<svg width="800" height="400" xmlns="http://www.w3.org/2000/svg">
  <defs>
    <linearGradient id="bg" x1="0%" y1="0%" x2="100%" y2="100%">
      <stop offset="0%" style="stop-color:#e91e63;stop-opacity:1" />
      <stop offset="100%" style="stop-color:#ffeb3b;stop-opacity:1" />
    </linearGradient>
  </defs>
  
  <!-- Background -->
  <rect width="800" height="400" fill="url(#bg)"/>
  
  <!-- Shopping cart icon -->
  <g transform="translate(400, 200)">
    <circle cx="0" cy="0" r="80" fill="white" opacity="0.9"/>
    <rect x="-60" y="-40" width="120" height="80" rx="10" fill="#e91e63"/>
    <rect x="-50" y="-30" width="100" height="60" rx="5" fill="white"/>
    <circle cx="-30" cy="0" r="8" fill="#e91e63"/>
    <circle cx="0" cy="0" r="8" fill="#e91e63"/>
    <circle cx="30" cy="0" r="8" fill="#e91e63"/>
    <rect x="-20" y="20" width="40" height="8" rx="4" fill="#e91e63"/>
  </g>
  
  <!-- Shopping bags -->
  <g transform="translate(200, 150)">
    <rect x="0" y="0" width="40" height="60" rx="5" fill="#ffeb3b"/>
    <rect x="5" y="5" width="30" height="50" rx="3" fill="white"/>
    <rect x="15" y="10" width="10" height="20" fill="#ffeb3b"/>
  </g>
  
  <g transform="translate(600, 150)">
    <rect x="0" y="0" width="40" height="60" rx="5" fill="#e91e63"/>
    <rect x="5" y="5" width="30" height="50" rx="3" fill="white"/>
    <rect x="15" y="10" width="10" height="20" fill="#e91e63"/>
  </g>
  
  <!-- Text -->
  <text x="400" y="320" font-family="Arial, sans-serif" font-size="24" font-weight="bold" text-anchor="middle" fill="white">
    Silence d'Or - E-commerce
  </text>
  <text x="400" y="350" font-family="Arial, sans-serif" font-size="16" text-anchor="middle" fill="white" opacity="0.9">
    Découvrez nos produits exceptionnels
  </text>
</svg>
